<?xml version="1.0" encoding="UTF-8" standalone="no"?>
<!-- Created with Inkscape (http://www.inkscape.org/) -->

<svg
   width="256"
   height="256"
   viewBox="0 0 67.733332 67.733333"
   version="1.1"
   id="svg1"
   xml:space="preserve"
   inkscape:export-filename="bitmap.png"
   inkscape:export-xdpi="96"
   inkscape:export-ydpi="96"
   sodipodi:docname="cesarwarning.svg"
   inkscape:version="1.3.2 (091e20e, 2023-11-25, custom)"
   xmlns:inkscape="http://www.inkscape.org/namespaces/inkscape"
   xmlns:sodipodi="http://sodipodi.sourceforge.net/DTD/sodipodi-0.dtd"
   xmlns="http://www.w3.org/2000/svg"
   xmlns:svg="http://www.w3.org/2000/svg"><sodipodi:namedview
     id="namedview1"
     pagecolor="#505050"
     bordercolor="#ffffff"
     borderopacity="1"
     inkscape:showpageshadow="0"
     inkscape:pageopacity="0"
     inkscape:pagecheckerboard="1"
     inkscape:deskcolor="#d1d1d1"
     inkscape:document-units="mm"
     inkscape:zoom="2"
     inkscape:cx="107.5"
     inkscape:cy="192.25"
     inkscape:window-width="1852"
     inkscape:window-height="1057"
     inkscape:window-x="1980"
     inkscape:window-y="-8"
     inkscape:window-maximized="1"
     inkscape:current-layer="layer3"
     showguides="false" /><defs
     id="defs1"><symbol
       id="BaggageLockers"><title
         id="title41">Baggage Lockers</title><!-- key --><path
         d="m 34.625,11 a 7.5,7.5 0 1 0 0,7 H 37 l 2.5,-2.5 2,2 2,-2 2,2 2,-2 2,2 L 52,15 c 0.5,-0.5 0.5,-1 0,-1.5 L 49.5,11 Z M 27,14.5 a 2,2 0 1 1 -4,0 2,2 0 1 1 4,0 z"
         style="stroke:none"
         id="path42" /><!-- locker --><rect
         x="16.5"
         y="26.5"
         width="39"
         height="32"
         style="fill:#ffffff;stroke-width:5"
         id="rect42" /><!-- bag --><path
         d="M 33.5,31.5 A 1.5,1.5 0 0 0 32,33 v 2.5 h -3 v 18 h 14.5 v -18 H 40 V 33 a 1.5,1.5 0 0 0 -1.5,-1.5 z m 0,1.5 h 5 v 2.5 h -5 z m -8,2.5 A 2.5,2.5 0 0 0 23,38 v 13 a 2.5,2.5 0 0 0 2.5,2.5 h 2 v -18 z m 19.5,0 v 18 h 1.5 A 2.5,2.5 0 0 0 49,51 V 38 a 2.5,2.5 0 0 0 -2.5,-2.5 z"
         style="stroke:none"
         id="path43" /></symbol><symbol
       id="Extract"><title
         id="title13">Extract</title><desc
         id="desc13">Removal of one or more specific sets of times from a set. (ISO)</desc><path
         d="m 35,115 40,-70 40,70 z"
         style="stroke-width:2"
         id="path13" /></symbol></defs><g
     inkscape:groupmode="layer"
     id="layer2"
     inkscape:label="Layer 2"><path
       style="font-variation-settings:normal;display:inline;opacity:1;vector-effect:none;fill:#8c6a4e;fill-opacity:1;stroke:#423226;stroke-width:0.549082;stroke-linecap:round;stroke-linejoin:round;stroke-miterlimit:4;stroke-dasharray:none;stroke-dashoffset:0;stroke-opacity:1;-inkscape-stroke:none;stop-color:#000000;stop-opacity:1"
       d="M 23.248092,67.112021 C 14.202297,66.673225 7.3852838,58.489083 3.423816,50.624527 -0.53765179,42.759971 0.0689571,31.58338 1.6706488,23.797419 3.2723405,16.011458 6.4985169,9.2664634 11.110781,5.353781 15.723045,1.4410986 20.715777,0.93096969 26.08013,0.74287174 31.444483,0.55477379 37.374855,0.52642321 42.263213,4.515434 c 4.888358,3.9890108 7.989975,11.266689 9.170413,19.281985 1.180438,8.015296 0.923123,18.821408 -4.04577,26.827108 -4.968892,8.0057 -15.093969,16.92629 -24.139764,16.487494 z"
       id="path14"
       sodipodi:nodetypes="zzzzzzzzz"
       inkscape:label="Head - Fill" /><path
       style="font-variation-settings:normal;opacity:1;fill:#31241c;fill-opacity:1;stroke:none;stroke-width:1.649;stroke-linecap:round;stroke-linejoin:round;stroke-miterlimit:4;stroke-dasharray:none;stroke-dashoffset:0;stroke-opacity:1;paint-order:normal"
       d="m 30.682541,65.481032 v 0 c 0,0 -4.95952,-1.304911 -6.454559,-3.180505 -1.178551,-1.478546 -1.797646,-3.692394 -1.30962,-5.519116 0.375772,-1.406546 4.978436,-3.337301 3.324147,-3.345874 -2.623631,-0.01359 -3.235395,0.209817 -4.584645,0.170067 -1.076083,-0.03171 -0.757468,-0.08653 -3.709674,-0.197464 -1.182418,-0.04443 1.811999,2.285706 1.883209,3.466814 0.09384,1.556558 -0.05822,3.294427 -0.935444,4.583674 -0.900075,1.322832 -0.703221,1.846197 -4.353135,2.520021 -1.046773,0.193249 2.07634,1.344608 3.051972,1.770309 1.353263,0.590474 2.805768,0.974951 4.266406,1.190625 1.036305,0.153018 2.101996,0.192191 3.141927,0.06615 1.945932,-0.235849 5.679416,-1.524701 5.679416,-1.524701 z"
       id="path31"
       sodipodi:nodetypes="ssssssssssssss" /><path
       style="font-variation-settings:normal;display:inline;opacity:1;fill:none;fill-opacity:1;stroke:#423226;stroke-width:0.446;stroke-linecap:round;stroke-linejoin:round;stroke-miterlimit:4;stroke-dasharray:none;stroke-dashoffset:0;stroke-opacity:1;stop-color:#000000;stop-opacity:1"
       d="M 23.378374,67.113307 C 14.373135,66.674494 7.5866844,58.490035 3.6429772,50.625175 -0.30072995,42.760314 0.3031593,31.58329 1.8976701,23.797028 3.4921808,16.010765 6.7038932,9.2655093 11.295479,5.3526754 15.887064,1.4398415 20.857412,0.92969285 26.197715,0.74158762 31.538018,0.55348238 37.441802,0.5251307 42.308244,4.514296 c 4.866442,3.9891652 7.954153,11.267125 9.129299,19.282732 1.175145,8.015606 0.918984,18.822137 -4.027632,26.828147 -4.946615,8.00601 -15.026297,16.926945 -24.031537,16.488132 z"
       id="path18"
       sodipodi:nodetypes="zzzzzzzzz"
       inkscape:label="Head - Outline" /><path
       style="display:inline;fill:#8c6a4e;fill-opacity:1;stroke:#423226;stroke-width:0.481;stroke-linecap:round;stroke-linejoin:round;stroke-dasharray:none;stroke-opacity:1"
       d="m 49.961345,33.073199 c 0.372034,-0.394654 2.323018,-3.405078 4.108304,-3.513946 1.785286,-0.108868 3.30838,1.213134 4.360514,3.14743 1.052134,1.934297 1.084493,3.028936 0.66399,5.730968 -0.172739,1.109971 -1.114211,2.744186 -1.562328,4.020941 -0.642746,1.831281 -1.336074,3.912411 -2.277592,4.836839 -1.597936,1.568931 -2.864101,1.688956 -4.324496,1.46514 -1.460394,-0.223817 -3.092553,-1.513869 -3.092553,-1.513869"
       id="path15"
       sodipodi:nodetypes="czzssszc"
       inkscape:label="Ear" /><path
       style="display:inline;fill:none;fill-opacity:1;stroke:#423226;stroke-width:0.529167;stroke-linecap:round;stroke-linejoin:round;stroke-opacity:1"
       d="m 6.6408411,10.704414 c 0,0 11.5784689,-3.4390854 17.5174349,-3.2854001 4.992623,0.1291964 11.385639,0.7790652 15.423467,3.7182691 3.074168,2.237739 2.490481,5.905681 3.642386,9.529367 1.087715,3.421754 3.967581,4.977685 3.819903,8.565123 -0.143798,3.493152 -1.960149,9.716672 -1.285609,9.711681 2.629762,-0.01946 4.194252,-5.82876 4.194252,-5.82876"
       id="path16"
       sodipodi:nodetypes="csssssc"
       inkscape:label="Hairline" /><path
       style="font-variation-settings:normal;opacity:1;fill:#ffffff;fill-opacity:1;stroke:#ffffff;stroke-width:0.549;stroke-linecap:round;stroke-linejoin:round;stroke-miterlimit:4;stroke-dasharray:none;stroke-dashoffset:0;stroke-opacity:1;paint-order:normal"
       d="m 6.3499999,26.722916 c 0,0 -1.1815051,5.481046 0.066146,7.739063 0.8104805,1.466819 2.5718203,2.493318 4.2333331,2.711979 2.01872,0.265671 4.37804,-0.415365 5.820833,-1.852083 2.085031,-2.076252 2.711979,-8.400521 2.711979,-8.400521"
       id="path24"
       sodipodi:nodetypes="caaac" /><path
       style="font-variation-settings:normal;opacity:1;fill:#8c6a4e;fill-opacity:1;stroke:none;stroke-width:0.549;stroke-linecap:square;stroke-linejoin:miter;stroke-miterlimit:4;stroke-dasharray:none;stroke-dashoffset:0;stroke-opacity:1;paint-order:normal"
       d="m 5.6885415,28.244271 c 0,0 6.3708145,-0.857426 9.5250005,-0.463021 1.418715,0.177399 4.101042,1.25677 4.101042,1.25677 l 3.902603,-2.84427 -6.184635,-4.663281 -10.7486978,0.198437 -3.208073,3.836459 z"
       id="path25"
       sodipodi:nodetypes="cac" /><path
       style="font-variation-settings:normal;opacity:1;fill:none;fill-opacity:1;stroke:#423226;stroke-width:1.649;stroke-linecap:round;stroke-linejoin:round;stroke-miterlimit:4;stroke-dasharray:none;stroke-dashoffset:0;stroke-opacity:1;paint-order:normal"
       d="m 5.6885415,28.244271 c 0,0 6.3708145,-0.857426 9.5250005,-0.463021 1.418715,0.177399 4.101042,1.25677 4.101042,1.25677"
       id="path23"
       sodipodi:nodetypes="cac" /><path
       style="font-variation-settings:normal;opacity:1;fill:#ffffff;fill-opacity:1;stroke:#ffffff;stroke-width:1.649;stroke-linecap:round;stroke-linejoin:round;stroke-miterlimit:4;stroke-dasharray:none;stroke-dashoffset:0;stroke-opacity:1;paint-order:normal"
       d="m 26.473047,28.343932 c 0,0 -0.678517,3.273536 0,4.677217 0.709982,1.468777 2.241555,2.691904 3.835317,3.040191 1.473975,0.322109 3.118571,-0.273862 4.396584,-1.075759 1.078803,-0.6769 1.970375,-1.759728 2.432152,-2.946645 0.543415,-1.396753 0.233862,-4.49013 0.233862,-4.49013"
       id="path27"
       sodipodi:nodetypes="caaaac" /><path
       style="font-variation-settings:normal;display:inline;opacity:1;fill:#8c6a4e;fill-opacity:1;stroke:none;stroke-width:1.649;stroke-linecap:round;stroke-linejoin:round;stroke-miterlimit:4;stroke-dasharray:none;stroke-dashoffset:0;stroke-opacity:1;paint-order:normal"
       d="m 38.166087,28.437477 c 0,0 -5.11646,-0.963313 -7.670636,-0.701582 -1.864369,0.191045 -5.378798,1.637024 -5.378798,1.637024 l -4.77076,-4.58367 9.588294,-3.320824 11.22532,2.338608 z"
       id="path28"
       sodipodi:nodetypes="csc" /><path
       style="font-variation-settings:normal;display:inline;opacity:1;fill:none;fill-opacity:1;stroke:#423226;stroke-width:1.649;stroke-linecap:round;stroke-linejoin:round;stroke-miterlimit:4;stroke-dasharray:none;stroke-dashoffset:0;stroke-opacity:1;paint-order:normal"
       d="m 25.116653,29.372919 c 0,0 3.514429,-1.445979 5.378798,-1.637024 2.554176,-0.261731 7.670636,0.701582 7.670636,0.701582"
       id="path26"
       sodipodi:nodetypes="csc" /><circle
       style="font-variation-settings:normal;opacity:1;fill:#000000;fill-opacity:1;stroke:none;stroke-width:1.649;stroke-linecap:round;stroke-linejoin:round;stroke-miterlimit:4;stroke-dasharray:none;stroke-dashoffset:0;stroke-opacity:1;paint-order:normal"
       id="path29"
       cx="9.4013233"
       cy="33.54298"
       r="2.0813613" /><circle
       style="font-variation-settings:normal;fill:#000000;fill-opacity:1;stroke:none;stroke-width:1.649;stroke-linecap:round;stroke-linejoin:round;stroke-miterlimit:4;stroke-dasharray:none;stroke-dashoffset:0;stroke-opacity:1;paint-order:normal"
       id="path29-0"
       cx="29.312695"
       cy="33.461884"
       r="2.0813613" /><path
       style="font-variation-settings:normal;opacity:1;fill:#31241c;fill-opacity:1;stroke:none;stroke-width:1.53626;stroke-linecap:round;stroke-linejoin:round;stroke-miterlimit:4;stroke-dasharray:none;stroke-dashoffset:0;stroke-opacity:1;paint-order:normal"
       d="m 2.773896,25.545864 c -0.5212705,-0.443978 1.5569353,-2.550988 2.8537969,-3.241372 2.09111,-1.113201 6.3124771,-0.775009 6.8157481,-0.714644 0.503271,0.06037 7.479266,0.850545 8.133675,1.903625 0.508858,0.818857 0.343255,2.18086 -0.377454,2.837128 -0.486789,0.443264 -5.153399,-2.346055 -8.033259,-2.678005 C 10.041135,23.407624 7.889667,23.105617 5.8164196,23.616603 4.8626981,23.851665 3.0268993,25.761349 2.773896,25.54586 Z"
       id="path32"
       sodipodi:nodetypes="ssssssss" /><path
       style="font-variation-settings:normal;opacity:1;fill:#31241c;fill-opacity:1;stroke:none;stroke-width:1.69027;stroke-linecap:round;stroke-linejoin:round;stroke-miterlimit:4;stroke-dasharray:none;stroke-dashoffset:0;stroke-opacity:1;paint-order:normal"
       d="m 24.013081,26.162417 c -0.318365,-0.401791 -0.02652,-2.508668 0.31631,-2.837305 0.432405,-0.414494 4.131913,-1.488704 6.336326,-1.677768 2.671927,-0.22916 5.697568,-0.515521 7.996601,0.889333 1.534145,0.93746 3.630729,3.78591 3.023925,4.515071 -0.409003,0.491475 -2.642064,-2.328333 -4.016293,-2.74198 -2.320857,-0.698586 -4.657917,-0.313929 -7.071431,-0.131247 -2.28294,0.1728 -6.016388,2.702064 -6.585438,1.983896 z"
       id="path33"
       sodipodi:nodetypes="ssssssss" /><path
       style="font-variation-settings:normal;display:none;opacity:1;fill:none;fill-opacity:1;stroke:#423226;stroke-width:1.649;stroke-linecap:round;stroke-linejoin:round;stroke-miterlimit:4;stroke-dasharray:none;stroke-dashoffset:0;stroke-opacity:1;paint-order:normal"
       d="m 13.824479,50.93229 c 0.926042,-0.661458 3.338782,-1.273533 5.093229,-1.521354 2.270622,-0.320732 4.629992,-0.380842 6.879167,0.06615 1.795062,0.356743 5.093229,2.050521 5.093229,2.050521"
       id="path34"
       sodipodi:nodetypes="caac"
       inkscape:label="Mouth" /><path
       style="font-variation-settings:normal;opacity:1;fill:#31241c;fill-opacity:1;stroke:none;stroke-width:1.68361;stroke-linecap:round;stroke-linejoin:round;stroke-miterlimit:4;stroke-dasharray:none;stroke-dashoffset:0;stroke-opacity:1;paint-order:normal"
       d="m 8.2769044,51.401234 c -1.3149152,0.49886 4.6138106,-4.071938 7.5084706,-4.95785 4.180932,-1.279576 9.086184,-1.742558 13.164203,-0.187086 3.118504,1.189486 10.023592,8.498742 7.215932,6.735191 -4.679779,-2.939468 -5.20705,-2.859823 -8.093546,-3.461139 -3.811797,-0.794075 -7.828802,-0.540532 -11.701513,-0.09355 -2.762936,0.318894 -8.0935466,1.964434 -8.0935466,1.964434 z"
       id="path30"
       sodipodi:nodetypes="sssssss"
       inkscape:label="Moustache" /><path
       style="font-variation-settings:normal;display:inline;opacity:1;fill:none;fill-opacity:1;stroke:#423226;stroke-width:0.649;stroke-linecap:round;stroke-linejoin:round;stroke-miterlimit:4;stroke-dasharray:none;stroke-dashoffset:0;stroke-opacity:1;paint-order:normal"
       d="m 21.66276,33.998959 c -0.396875,1.058333 -2.616502,5.340855 -1.322917,7.540624 0.579674,0.985748 3.241146,1.12448 3.241146,1.12448"
       id="path35"
       sodipodi:nodetypes="csc" /><path
       style="font-variation-settings:normal;opacity:1;fill:#574132;fill-opacity:1;stroke:#574132;stroke-width:0.433618;stroke-linecap:round;stroke-linejoin:round;stroke-miterlimit:4;stroke-dasharray:none;stroke-dashoffset:0;stroke-opacity:1;paint-order:normal"
       d="m 173.50016,144.75492 c 0.18909,-2.06273 0.81788,-5.76161 2.2045,-12.96789 3.5191,-18.28891 3.90518,-23.67587 2.10219,-29.33199 -1.11256,-3.490208 -2.24098,-5.520851 -7.09572,-12.769042 -5.35082,-7.988855 -6.7733,-11.613395 -8.59169,-21.892136 -1.62285,-9.173453 -2.15728,-11.605437 -3.20484,-14.584077 -1.73985,-4.94709 -4.52855,-8.853889 -8.39364,-11.758954 -10.05333,-7.556254 -25.88399,-12.233064 -46.92982,-13.86435 -13.948786,-1.081188 -21.592144,-0.737066 -35.355336,1.591778 -9.85267,1.667153 -25.779687,5.300952 -37.388271,8.530252 -1.36118,0.378655 -2.50155,0.666849 -2.534155,0.64043 -0.09757,-0.07906 1.664642,-2.621236 3.594565,-5.185532 C 36.733087,26.752225 43.08475,20.596618 49.055533,16.545113 60.736511,8.6189267 72.779641,5.2432993 93.249706,4.1577138 104.63359,3.5539944 115.91074,3.5883298 122.8598,4.2478673 c 20.95767,1.9890968 35.65305,9.9471977 47.64983,25.8041707 12.98716,17.166032 21.45771,42.261529 24.10584,71.417782 0.36654,4.03572 0.67615,9.06198 0.75833,12.31121 l 0.0476,1.88139 -1.36131,1.42487 c -0.74872,0.78367 -2.44615,2.78863 -3.77206,4.45545 l -2.41075,3.03059 -0.75638,2.32522 c -1.09078,3.35325 -1.88465,5.31275 -3.44867,8.5124 -1.8143,3.71165 -3.21742,5.8136 -5.19983,7.78961 -1.62856,1.6233 -3.0957,2.54359 -4.50248,2.82426 l -0.59707,0.11911 z"
       id="path36"
       transform="scale(0.26458333)" /><path
       style="font-variation-settings:normal;opacity:1;fill:none;fill-opacity:1;stroke:#423226;stroke-width:0.648999;stroke-linecap:round;stroke-linejoin:round;stroke-miterlimit:4;stroke-dasharray:none;stroke-dashoffset:0;stroke-opacity:1;paint-order:normal"
       d="m 50.09299,39.475708 c 0,0 0.679955,-2.394926 1.496709,-3.274052 0.859611,-0.925256 2.107892,-1.47223 3.320825,-1.824114 0.240041,-0.06964 0.748355,-0.04677 0.748355,-0.04677"
       id="path37"
       sodipodi:nodetypes="caac" /><path
       style="font-variation-settings:normal;opacity:1;fill:none;fill-opacity:1;stroke:#423226;stroke-width:0.648999;stroke-linecap:round;stroke-linejoin:round;stroke-miterlimit:4;stroke-dasharray:none;stroke-dashoffset:0;stroke-opacity:1;paint-order:normal"
       d="m 53.273499,35.032352 c 0,0 0.986791,3.147161 0.982215,4.770762 -0.0038,1.354595 -0.159894,2.805246 -0.841899,3.975635 -0.272481,0.467605 -1.216077,1.075759 -1.216077,1.075759"
       id="path38"
       sodipodi:nodetypes="cssc" /></g><g
     inkscape:groupmode="layer"
     id="layer3"
     inkscape:label="Layer 3"
     style="display:inline"><path
       sodipodi:type="star"
       style="font-variation-settings:normal;opacity:1;fill:#ffe700;fill-opacity:1;stroke:#000000;stroke-width:2.00043;stroke-linecap:round;stroke-linejoin:round;stroke-miterlimit:4;stroke-dasharray:none;stroke-dashoffset:0;stroke-opacity:1;paint-order:normal"
       id="path47"
       inkscape:flatsided="true"
       sodipodi:sides="3"
       sodipodi:cx="63.703693"
       sodipodi:cy="63.984325"
       sodipodi:r1="23.980396"
       sodipodi:r2="11.990198"
       sodipodi:arg1="2.6179939"
       sodipodi:arg2="3.6651914"
       inkscape:rounded="0"
       inkscape:randomized="0"
       d="M 42.936061,75.974523 63.703694,40.003929 84.471325,75.974524 Z"
       inkscape:transform-center-y="-6.083719"
       transform="matrix(1.0147816,0,0,1.0147816,-19.411006,-10.86642)"
       inkscape:transform-center-x="2.3696204e-06" /><text
       xml:space="preserve"
       style="font-style:normal;font-variant:normal;font-weight:normal;font-stretch:normal;font-size:28.0032px;line-height:0.7;font-family:'Sofia Sans Semi Condensed';-inkscape-font-specification:'Sofia Sans Semi Condensed, Normal';font-variant-ligatures:normal;font-variant-caps:normal;font-variant-numeric:normal;font-variant-east-asian:normal;opacity:1;fill:#000000;fill-opacity:1;stroke:#000000;stroke-width:2.20497;stroke-linecap:round;stroke-linejoin:round;stroke-miterlimit:4;stroke-dasharray:none;stroke-dashoffset:0;stroke-opacity:1;paint-order:normal"
       x="42.107933"
       y="60.593964"
       id="text47"><tspan
         sodipodi:role="line"
         id="tspan47"
         style="font-style:normal;font-variant:normal;font-weight:normal;font-stretch:normal;font-size:28.0032px;font-family:'Sofia Sans Semi Condensed';-inkscape-font-specification:'Sofia Sans Semi Condensed, Normal';font-variant-ligatures:normal;font-variant-caps:normal;font-variant-numeric:normal;font-variant-east-asian:normal;fill:#000000;fill-opacity:1;stroke-width:2.20497"
         x="42.107933"
         y="60.593964">!</tspan></text></g></svg>
